<svg width="100" height="20" viewBox="0 0 100 20" fill="none" xmlns="http://www.w3.org/2000/svg">
<rect x="25" width="49" height="20" rx="10" fill="#0A65FF"/>
<path d="M31.4134 14H30.2486L32.8658 6.72727H34.1335L36.7507 14H35.5859L33.5298 8.0483H33.473L31.4134 14ZM31.6087 11.152H35.3871V12.0753H31.6087V11.152ZM43.9996 9.09233H42.8917C42.8491 8.85559 42.7698 8.64725 42.6538 8.46733C42.5378 8.28741 42.3957 8.13471 42.2276 8.00923C42.0595 7.88376 41.8713 7.78906 41.663 7.72514C41.457 7.66122 41.238 7.62926 41.006 7.62926C40.587 7.62926 40.2118 7.73461 39.8803 7.94531C39.5513 8.15601 39.2908 8.46496 39.0991 8.87216C38.9097 9.27936 38.815 9.77652 38.815 10.3636C38.815 10.9555 38.9097 11.455 39.0991 11.8622C39.2908 12.2694 39.5524 12.5772 39.8839 12.7855C40.2153 12.9938 40.5882 13.098 41.0025 13.098C41.2321 13.098 41.4499 13.0672 41.6559 13.0057C41.8642 12.9418 42.0524 12.8482 42.2205 12.7251C42.3886 12.602 42.5307 12.4517 42.6467 12.2741C42.765 12.0942 42.8467 11.8883 42.8917 11.6562L43.9996 11.6598C43.9405 12.0173 43.8256 12.3464 43.6552 12.647C43.4871 12.9453 43.2705 13.2034 43.0053 13.4212C42.7425 13.6366 42.4419 13.8035 42.1033 13.9219C41.7648 14.0402 41.3955 14.0994 40.9954 14.0994C40.3656 14.0994 39.8046 13.9503 39.3121 13.652C38.8197 13.3513 38.4315 12.9216 38.1474 12.3629C37.8656 11.8042 37.7248 11.1378 37.7248 10.3636C37.7248 9.58712 37.8668 8.92069 38.1509 8.36435C38.435 7.80563 38.8233 7.37713 39.3157 7.07884C39.8081 6.77817 40.368 6.62784 40.9954 6.62784C41.3813 6.62784 41.7411 6.68348 42.0749 6.79474C42.4111 6.90365 42.7129 7.06463 42.9805 7.2777C43.248 7.4884 43.4693 7.74645 43.6445 8.05185C43.8197 8.35488 43.9381 8.7017 43.9996 9.09233ZM45.454 7.67188V6.72727H51.0826V7.67188H48.8134V14H47.7196V7.67188H45.454ZM53.9237 6.72727V14H52.8263V6.72727H53.9237ZM56.6573 6.72727L58.6815 12.6506H58.7631L60.7873 6.72727H61.9734L59.3562 14H58.0884L55.4712 6.72727H56.6573ZM63.5236 14V6.72727H68.0833V7.67188H64.6209V9.88778H67.8453V10.8288H64.6209V13.0554H68.1259V14H63.5236Z" fill="white"/>
</svg>
