<svg width="100" height="20" viewBox="0 0 100 20" fill="none" xmlns="http://www.w3.org/2000/svg">
<rect x="20.5" y="0.5" width="59" height="19" rx="9.5" stroke="#606F89"/>
<path d="M26.8963 6.72727V14H25.799V6.72727H26.8963ZM34.8643 6.72727V14H33.8558L30.1591 8.66619H30.0916V14H28.9943V6.72727H30.0099L33.7102 12.0682H33.7777V6.72727H34.8643ZM37.5794 14H36.4146L39.0318 6.72727H40.2995L42.9167 14H41.752L39.6958 8.0483H39.639L37.5794 14ZM37.7747 11.152H41.5531V12.0753H37.7747V11.152ZM50.1657 9.09233H49.0577C49.0151 8.85559 48.9358 8.64725 48.8198 8.46733C48.7038 8.28741 48.5617 8.13471 48.3936 8.00923C48.2256 7.88376 48.0373 7.78906 47.829 7.72514C47.623 7.66122 47.4041 7.62926 47.1721 7.62926C46.753 7.62926 46.3778 7.73461 46.0463 7.94531C45.7173 8.15601 45.4569 8.46496 45.2651 8.87216C45.0757 9.27936 44.981 9.77652 44.981 10.3636C44.981 10.9555 45.0757 11.455 45.2651 11.8622C45.4569 12.2694 45.7185 12.5772 46.0499 12.7855C46.3813 12.9938 46.7542 13.098 47.1685 13.098C47.3981 13.098 47.6159 13.0672 47.8219 13.0057C48.0302 12.9418 48.2185 12.8482 48.3865 12.7251C48.5546 12.602 48.6967 12.4517 48.8127 12.2741C48.931 12.0942 49.0127 11.8883 49.0577 11.6562L50.1657 11.6598C50.1065 12.0173 49.9917 12.3464 49.8212 12.647C49.6531 12.9453 49.4365 13.2034 49.1713 13.4212C48.9086 13.6366 48.6079 13.8035 48.2694 13.9219C47.9308 14.0402 47.5615 14.0994 47.1614 14.0994C46.5317 14.0994 45.9706 13.9503 45.4782 13.652C44.9857 13.3513 44.5975 12.9216 44.3134 12.3629C44.0317 11.8042 43.8908 11.1378 43.8908 10.3636C43.8908 9.58712 44.0328 8.92069 44.3169 8.36435C44.601 7.80563 44.9893 7.37713 45.4817 7.07884C45.9741 6.77817 46.534 6.62784 47.1614 6.62784C47.5473 6.62784 47.9071 6.68348 48.2409 6.79474C48.5771 6.90365 48.879 7.06463 49.1465 7.2777C49.414 7.4884 49.6354 7.74645 49.8105 8.05185C49.9857 8.35488 50.1041 8.7017 50.1657 9.09233ZM51.62 7.67188V6.72727H57.2486V7.67188H54.9794V14H53.8857V7.67188H51.62ZM60.0897 6.72727V14H58.9924V6.72727H60.0897ZM62.8233 6.72727L64.8475 12.6506H64.9292L66.9533 6.72727H68.1394L65.5222 14H64.2544L61.6373 6.72727H62.8233ZM69.6896 14V6.72727H74.2493V7.67188H70.7869V9.88778H74.0114V10.8288H70.7869V13.0554H74.2919V14H69.6896Z" fill="#606F89"/>
</svg>
